<svg viewBox="0 0 50 34" fill="none" xmlns="http://www.w3.org/2000/svg">
<path id="Vector" d="M15.4 28.4286H34.6M15.4 28.4286C15.4 30.9534 13.251 33 10.6 33C7.94903 33 5.8 30.9534 5.8 28.4286M15.4 28.4286C15.4 25.9038 13.251 23.8571 10.6 23.8571C7.94903 23.8571 5.8 25.9038 5.8 28.4286M34.6 28.4286C34.6 30.9534 36.749 33 39.4 33C42.051 33 44.2 30.9534 44.2 28.4286M34.6 28.4286C34.6 25.9038 36.749 23.8571 39.4 23.8571C42.051 23.8571 44.2 25.9038 44.2 28.4286M5.8 28.4286H4.84C3.49588 28.4286 2.82381 28.4286 2.31042 28.1794C1.85884 27.9602 1.49169 27.6107 1.26158 27.1806C1 26.6917 1 26.0517 1 24.7714V22.0286C1 19.4683 1 18.1881 1.52318 17.2103C1.98335 16.3502 2.71766 15.6507 3.62085 15.2126C4.64762 14.7143 5.99176 14.7143 8.68 14.7143H37.48C39.2637 14.7143 40.1555 14.7143 40.9017 14.8267C45.0095 15.4464 48.2313 18.5147 48.8819 22.427C49 23.1376 49 23.987 49 25.6857C49 26.1104 49 26.3227 48.9705 26.5003C48.8078 27.4784 48.0023 28.2455 46.9754 28.4005C46.7889 28.4286 46.5659 28.4286 46.12 28.4286H44.2M20.2 1V14.7143M5.8 14.7143L6.59565 10.1677C7.16562 6.9107 7.45062 5.28217 8.30392 4.06011C9.0561 2.98286 10.1129 2.13022 11.3523 1.60071C12.7583 1 14.4918 1 17.9589 1H26.0346C28.2887 1 29.4158 1 30.4389 1.29589C31.3446 1.55785 32.187 1.98729 32.9183 2.55968C33.7444 3.20624 34.3696 4.09936 35.62 5.88558L41.8 14.7143" stroke="#0CED9C" stroke-opacity="0.9" stroke-width="2" stroke-linecap="round" stroke-linejoin="round"/>
</svg>
