<svg width="32" height="32" viewBox="0 0 32 32" fill="none" xmlns="http://www.w3.org/2000/svg">
<g id="date-svgrepo-com 1" clip-path="url(#clip0_1_463)">
<path id="Vector" fill-rule="evenodd" clip-rule="evenodd" d="M1.06665 4.28128C1.06665 3.09501 2.02655 2.13333 3.21459 2.13333H28.7854C29.9717 2.13333 30.9333 3.09324 30.9333 4.28128V29.8521C30.9333 31.0383 29.9734 32 28.7854 32H3.21459C2.02832 32 1.06665 31.0401 1.06665 29.8521V4.28128ZM3.19998 10.6667H28.8V29.8667H3.19998V10.6667ZM7.46665 1.06667C7.46665 0.477564 7.92326 0 8.54331 0H10.6567C11.2513 0 11.7333 0.494793 11.7333 1.06667V2.13333H7.46665V1.06667ZM20.2667 1.06667C20.2667 0.477564 20.7233 0 21.3433 0H23.4567C24.0513 0 24.5333 0.494793 24.5333 1.06667V2.13333H20.2667V1.06667Z" fill="#3077FF"/>
</g>
<defs>
<clipPath id="clip0_1_463">
<rect width="32" height="32" fill="white"/>
</clipPath>
</defs>
</svg>
