<svg viewBox="0 0 23 24" fill="none" xmlns="http://www.w3.org/2000/svg">
<path id="Vector" fill-rule="evenodd" clip-rule="evenodd" d="M0 3.21096C0 2.32126 0.719921 1.6 1.61096 1.6H20.7891C21.6788 1.6 22.4 2.31993 22.4 3.21096V22.389C22.4 23.2787 21.6801 24 20.7891 24H1.61096C0.721251 24 0 23.2801 0 22.389V3.21096ZM1.6 8H20.8V22.4H1.6V8ZM4.8 0.8C4.8 0.358173 5.14246 0 5.6075 0H7.1925C7.63847 0 8 0.371094 8 0.8V1.6H4.8V0.8ZM14.4 0.8C14.4 0.358173 14.7425 0 15.2075 0H16.7925C17.2385 0 17.6 0.371094 17.6 0.8V1.6H14.4V0.8Z" fill="#3077FF"/>
</svg>
