<svg xmlns="http://www.w3.org/2000/svg" viewBox="0 0 23 24" fill="none">
  <path d="M21.125 2.24741L15.6202 2.24744V0.752685C15.6202 0.33831 15.3125 0.00268555 14.9327 0.00268555C14.5528 0.00268555 14.2452 0.33831 14.2452 0.752685V2.24706H8.74519V0.752685C8.74519 0.33831 8.43753 0.00268555 8.05769 0.00268555C7.67784 0.00268555 7.37019 0.33831 7.37019 0.752685V2.24706H1.875C1.11566 2.24706 0.5 2.91869 0.5 3.74706V22.4971C0.5 23.3254 1.11566 23.9971 1.875 23.9971H21.125C21.8843 23.9971 22.5 23.3254 22.5 22.4971V3.74706C22.5 2.91904 21.8843 2.24741 21.125 2.24741ZM21.125 22.4971H1.875V3.74706H7.37019V4.50269C7.37019 4.91704 7.67784 5.25269 8.05769 5.25269C8.43753 5.25269 8.74519 4.91704 8.74519 4.50269V3.74744H14.2452V4.50306C14.2452 4.91744 14.5528 5.25306 14.9327 5.25306C15.3125 5.25306 15.6202 4.91744 15.6202 4.50306V3.74744H21.125V22.4971ZM16.3125 11.9974H17.6875C18.067 11.9974 18.375 11.6614 18.375 11.2474V9.74741C18.375 9.33341 18.067 8.99741 17.6875 8.99741H16.3125C15.933 8.99741 15.625 9.33341 15.625 9.74741V11.2474C15.625 11.6614 15.933 11.9974 16.3125 11.9974ZM16.3125 17.997H17.6875C18.067 17.997 18.375 17.6614 18.375 17.247V15.747C18.375 15.333 18.067 14.997 17.6875 14.997H16.3125C15.933 14.997 15.625 15.333 15.625 15.747V17.247C15.625 17.6618 15.933 17.997 16.3125 17.997ZM12.1875 14.997H10.8125C10.433 14.997 10.125 15.333 10.125 15.747V17.247C10.125 17.6614 10.433 17.997 10.8125 17.997H12.1875C12.567 17.997 12.875 17.6614 12.875 17.247V15.747C12.875 15.3334 12.567 14.997 12.1875 14.997ZM12.1875 8.99741H10.8125C10.433 8.99741 10.125 9.33341 10.125 9.74741V11.2474C10.125 11.6614 10.433 11.9974 10.8125 11.9974H12.1875C12.567 11.9974 12.875 11.6614 12.875 11.2474V9.74741C12.875 9.33304 12.567 8.99741 12.1875 8.99741ZM6.6875 8.99741H5.3125C4.933 8.99741 4.625 9.33341 4.625 9.74741V11.2474C4.625 11.6614 4.933 11.9974 5.3125 11.9974H6.6875C7.067 11.9974 7.375 11.6614 7.375 11.2474V9.74741C7.375 9.33304 7.067 8.99741 6.6875 8.99741ZM6.6875 14.997H5.3125C4.933 14.997 4.625 15.333 4.625 15.747V17.247C4.625 17.6614 4.933 17.997 5.3125 17.997H6.6875C7.067 17.997 7.375 17.6614 7.375 17.247V15.747C7.375 15.3334 7.067 14.997 6.6875 14.997Z" fill="#0CED9C" fill-opacity="0.9"/>
</svg>