<svg viewBox="0 0 48 48" fill="none" xmlns="http://www.w3.org/2000/svg">
<g id="question-mark-circle-svgrepo-com 1">
<path id="Vector" d="M24 42C33.9411 42 42 33.9411 42 24C42 14.0589 33.9411 6 24 6C14.0589 6 6 14.0589 6 24C6 33.9411 14.0589 42 24 42Z" stroke="#0CED9C" stroke-opacity="0.9" stroke-width="2" stroke-linecap="round" stroke-linejoin="round"/>
<path id="Vector_2" d="M24.02 32H24V32.02H24.02V32Z" stroke="#0CED9C" stroke-opacity="0.9" stroke-width="4" stroke-linejoin="round"/>
<path id="Vector_3" d="M21.1716 15.1713C21.9508 14.3921 22.9716 14.0015 23.993 13.9998C25.019 13.998 26.0456 14.3885 26.8284 15.1713C27.6094 15.9524 28 16.9761 28 17.9998C28 19.0234 27.6094 20.0471 26.8284 20.8281C26.0456 21.6111 25.019 22.0015 23.993 21.9997L24 23.9997" stroke="#0CED9C" stroke-opacity="0.9" stroke-width="2" stroke-linecap="round" stroke-linejoin="round"/>
</g>
</svg>
