<svg width="32" height="32" viewBox="0 0 32 32" fill="none" xmlns="http://www.w3.org/2000/svg">
<g id="flight-land-svgrepo-com 1" clip-path="url(#clip0_69_97)">
<g id="Group">
<path id="Vector" d="M13.672 12.96L13.1786 1.784L15.756 2.47467L19.5026 14.5213L26.5173 16.4013C26.771 16.4693 27.0089 16.5865 27.2173 16.7464C27.4257 16.9062 27.6006 17.1056 27.7319 17.333C27.8633 17.5605 27.9486 17.8115 27.9829 18.0719C28.0172 18.3323 27.9999 18.597 27.932 18.8507C27.864 19.1044 27.7468 19.3422 27.5869 19.5506C27.4271 19.759 27.2277 19.9339 27.0003 20.0653C26.7729 20.1966 26.5218 20.2819 26.2614 20.3162C26.001 20.3506 25.7364 20.3333 25.4826 20.2653L5.51998 14.916L6.55465 11.052L6.87731 11.1387L8.09598 15.6053L4.59331 14.668C4.30629 14.5908 4.05331 14.4198 3.87454 14.1824C3.69578 13.9449 3.60149 13.6545 3.60665 13.3573L3.72665 6.15334L5.65865 6.67067L6.87731 11.1387L13.672 12.96ZM5.33331 24.3333H26.6666V27H5.33331V24.3333Z" />
</g>
</g>
<defs>
<clipPath id="clip0_69_97">
<rect width="32" height="32" fill="white"/>
</clipPath>
</defs>
</svg>
