<svg width="32" height="32" viewBox="0 0 32 32" fill="none" xmlns="http://www.w3.org/2000/svg">
<g clip-path="url(#clip0_69_92)">
<path d="M13.9706 15.5093L7.95726 6.08L10.5319 5.38934L19.7999 13.9493L26.8159 12.0693C27.3283 11.9321 27.8742 12.0041 28.3336 12.2694C28.7929 12.5347 29.1281 12.9716 29.2653 13.484C29.4025 13.9964 29.3305 14.5423 29.0652 15.0017C28.7999 15.461 28.363 15.7961 27.8506 15.9333L7.88792 21.28L6.85326 17.416L7.17459 17.3293L10.4639 20.5893L6.96259 21.528C6.67548 21.605 6.37087 21.5838 6.09717 21.4679C5.82346 21.3519 5.59635 21.1478 5.45192 20.888L1.95459 14.5867L3.88659 14.0693L7.17459 17.3293L13.9706 15.508V15.5093ZM5.33326 25.3333H26.6666V28H5.33326V25.3333Z"/>
</g>
<defs>
<clipPath id="clip0_69_92">
<rect width="32" height="32" fill="white"/>
</clipPath>
</defs>
</svg>
