<svg viewBox="0 0 32 24" fill="none" xmlns="http://www.w3.org/2000/svg">
<g id="world-1-svgrepo-com 1">
<path id="Vector" fill-rule="evenodd" clip-rule="evenodd" d="M8.20543 5.73488C10.0384 3.45739 12.849 2 16 2C16.4867 2 16.9651 2.03476 17.4331 2.10192L18.2835 3.80256L15.0288 7.0572L11.5288 7.5572L9.81345 9.27255L8.20543 5.73488ZM6.9348 7.77272C6.33501 9.05675 6 10.4892 6 12C6 16.926 9.56177 21.0201 14.2504 21.8475L14.7985 20.9593L11.7529 16.7293L13.8321 14.0341L12.8436 13.5399L9.25369 14.1381L8.55155 11.3296L6.9348 7.77272ZM10.6075 11.3069L10.7462 11.8619L13.1563 11.4601L15.1635 12.4637L18.7765 11.9619L25.2725 15.7513C25.7417 14.5929 26 13.3267 26 12C26 7.91639 23.5523 4.40448 20.044 2.85141L20.7169 4.19747L15.9716 8.94281L12.4716 9.4428L10.6075 11.3069ZM24.3385 17.5219C22.6365 20.0869 19.7825 21.8213 16.5145 21.9869L17.2015 20.874L14.2471 16.7707L16.1137 14.3509L18.3664 14.0381L24.3385 17.5219ZM16 0C9.37259 0 4 5.37259 4 12C4 18.6275 9.37259 24 16 24C22.6275 24 28 18.6275 28 12C28 5.37259 22.6275 0 16 0Z" fill="#0CED9C" fill-opacity="0.9"/>
</g>
</svg>
