<svg viewBox="0 0 48 32" xmlns="http://www.w3.org/2000/svg">
<path id="Vector" d="M1.64857 21.5681H46.3046V20.0728C46.3046 19.711 46.2186 19.3748 46.0662 19.0738C45.9022 18.7537 45.66 18.4687 45.3592 18.2221C45.1756 18.0716 44.9685 17.934 44.7458 17.8123C44.5193 17.6874 44.277 17.5785 44.0231 17.4857C43.3395 17.364 42.6597 17.2487 41.9839 17.1399C41.3041 17.031 40.6205 16.9286 39.9329 16.8325C39.9017 16.8293 39.8782 16.8261 39.847 16.8197C39.4993 16.7717 39.1672 16.7268 38.8508 16.6852C38.5344 16.6436 38.1984 16.602 37.8468 16.5571H37.839C35.4482 16.3074 33.0652 16.1153 30.6861 15.9872C28.3031 15.8591 25.9318 15.7951 23.5761 15.7919C22.1776 15.7919 20.7829 15.8111 19.3883 15.8559C18.0015 15.9007 16.6068 15.9648 15.2122 16.0544H15.2044C13.8996 16.1537 12.5987 16.2786 11.2939 16.4227C9.993 16.5667 8.68821 16.7364 7.3756 16.9254L7.23106 16.9542C7.20371 16.9606 7.17637 16.9638 7.15293 16.9638C7.12949 16.967 7.10605 16.967 7.08261 16.967C6.46928 17.0566 5.84032 17.1559 5.19183 17.2616C4.56287 17.364 3.93391 17.4729 3.30886 17.5849C3.1526 17.6554 3.00415 17.7354 2.86351 17.8187C2.72288 17.9051 2.58615 17.998 2.46504 18.0973C2.2033 18.3118 1.99626 18.5583 1.85562 18.8337C1.7228 19.0931 1.64857 19.3812 1.64857 19.695V21.5681ZM5.54733 0H41.8745C42.3472 0 42.8004 0.0768461 43.2145 0.217731C43.6442 0.365019 44.0309 0.579548 44.3552 0.842105C44.6794 1.10786 44.9412 1.42485 45.117 1.77707C45.2888 2.11647 45.3826 2.48789 45.3826 2.87532V16.5443C45.5818 16.6404 45.7772 16.746 45.9569 16.8613C46.16 16.9894 46.3514 17.1239 46.5272 17.268C46.9804 17.6394 47.3476 18.0716 47.5937 18.5583C47.8281 19.0162 47.957 19.5253 47.957 20.076V22.026C47.9688 22.058 47.9805 22.0901 47.9883 22.1221V22.1285C47.9961 22.1701 48 22.2085 48 22.2469C48 22.2886 47.9961 22.3302 47.9844 22.3718C47.9766 22.4038 47.9648 22.4359 47.9531 22.4679V31.3244C47.9531 31.5101 47.8594 31.6798 47.7109 31.8015C47.5625 31.9232 47.3554 32 47.1288 32H45.4295C45.2381 32 45.0623 31.9456 44.9216 31.8559C44.781 31.7663 44.6755 31.6382 44.6325 31.4909C44.32 30.7544 44.0036 30.1717 43.6637 29.717C43.3277 29.2688 42.9683 28.9486 42.5542 28.7212C42.1362 28.4939 41.6362 28.3498 41.0307 28.2634C40.4134 28.1737 39.6946 28.1449 38.8391 28.1481L7.68031 28.1801H7.66469C7.05136 28.1705 6.54741 28.2345 6.1255 28.369C5.7075 28.5035 5.36762 28.7052 5.08635 28.9646C4.76992 29.2528 4.50427 29.621 4.26207 30.05C4.01595 30.4887 3.79328 30.9882 3.5706 31.5357C3.51591 31.6766 3.40653 31.7887 3.2698 31.8687C3.14088 31.9456 2.98462 31.9904 2.82445 31.9968C2.81273 32 2.80101 32 2.78929 32H0.824286C0.597705 32 0.390657 31.9232 0.242207 31.8015C0.0937576 31.6798 0 31.5101 0 31.3244V19.6982C0 19.1955 0.117197 18.7344 0.328152 18.3182C0.554733 17.8763 0.886791 17.4825 1.30089 17.1431C1.41808 17.047 1.547 16.951 1.68373 16.8613C1.80093 16.7845 1.91813 16.7108 2.04314 16.6436V2.84651C2.04314 2.45908 2.13689 2.09085 2.30878 1.75785C2.48848 1.40885 2.75022 1.09506 3.07447 0.832499C3.39871 0.569942 3.78546 0.361817 4.21128 0.217731C4.62538 0.0768461 5.07463 0 5.54733 0ZM41.8745 1.35121H5.54733C5.2934 1.35121 5.05119 1.39284 4.82852 1.46648C4.59803 1.54333 4.39489 1.65539 4.223 1.79308C4.05502 1.92756 3.91829 2.09406 3.82453 2.27336C3.73859 2.44947 3.69171 2.64158 3.69171 2.84651V15.9936C3.8089 15.9616 3.9261 15.936 4.0472 15.9103C4.23863 15.8687 4.43005 15.8335 4.62147 15.8079C4.88712 15.7695 5.1762 15.7278 5.48873 15.683C5.72312 15.651 5.97314 15.6158 6.23098 15.5837V12.2281C6.23098 11.7222 6.35599 11.2387 6.57866 10.7969C6.81306 10.3358 7.15293 9.92275 7.57484 9.57695C7.99674 9.23114 8.50069 8.95257 9.06324 8.76046C9.60234 8.57795 10.1922 8.47548 10.8095 8.47548H18.5523C19.1695 8.47548 19.7594 8.57795 20.2985 8.76046C20.8611 8.95257 21.365 9.23114 21.7869 9.57695C22.2088 9.92275 22.5487 10.3358 22.7831 10.7969C23.0058 11.2387 23.1308 11.7222 23.1308 12.2281V14.3702C23.4042 14.367 23.6777 14.367 23.9551 14.367V12.2281C23.9551 11.7222 24.0801 11.2387 24.3028 10.7969C24.5372 10.3358 24.877 9.92275 25.2989 9.57695C25.7208 9.23114 26.2248 8.95257 26.7873 8.76046C27.3264 8.57795 27.9163 8.47548 28.5336 8.47548H36.2764C36.8936 8.47548 37.4835 8.57795 38.0226 8.76046C38.5852 8.95257 39.0891 9.23114 39.511 9.57695C39.9329 9.92275 40.2728 10.3358 40.5072 10.7969C40.7299 11.2387 40.8549 11.7222 40.8549 12.2281V15.5389C41.1479 15.5741 41.4604 15.6158 41.7964 15.6606C42.1675 15.7086 42.523 15.7567 42.8668 15.8047C43.0426 15.8303 43.2223 15.8591 43.402 15.8943C43.5153 15.9167 43.6246 15.9392 43.7301 15.9648V2.87532C43.7301 2.6704 43.6793 2.47508 43.5895 2.29578C43.4957 2.11007 43.3551 1.94357 43.1832 1.79948C43.0113 1.6586 42.8043 1.54333 42.5816 1.46648C42.3628 1.39284 42.1245 1.35121 41.8745 1.35121ZM16.8803 14.588C17.6655 14.5399 18.4546 14.4983 19.2555 14.4663C19.9938 14.4343 20.74 14.4118 21.4861 14.3958V12.2281C21.4861 11.9047 21.408 11.5942 21.2634 11.3124C21.115 11.0178 20.8962 10.7553 20.6228 10.5311C20.3532 10.3102 20.029 10.1309 19.6696 10.006C19.3258 9.88753 18.9469 9.82349 18.5523 9.82349H10.8095C10.4149 9.82349 10.036 9.88753 9.69219 10.006C9.33279 10.1277 9.01245 10.307 8.73899 10.5311C8.46944 10.7521 8.25067 11.0178 8.09832 11.3124C7.95377 11.5942 7.87564 11.9047 7.87564 12.2281V15.3692C8.50851 15.2924 9.14918 15.2219 9.80549 15.1515C10.5126 15.0778 11.2158 15.0106 11.9111 14.9466C12.1807 14.921 12.4698 14.8921 12.7706 14.8665C13.0518 14.8409 13.3448 14.8185 13.6574 14.7929C14.1887 14.7513 14.716 14.7128 15.2356 14.6776C15.7708 14.6488 16.3177 14.6168 16.8803 14.588ZM25.6036 14.3766C26.0763 14.383 26.549 14.3926 27.0217 14.4054C27.5452 14.4183 28.0687 14.4375 28.5883 14.4567H28.5922C29.4477 14.4823 30.2837 14.5143 31.0963 14.5527C31.9088 14.5912 32.7019 14.6392 33.4598 14.6936C34.5614 14.7737 35.6279 14.8697 36.6397 14.9818C37.546 15.0843 38.4055 15.1995 39.2102 15.3276V12.2281C39.2102 11.9047 39.1321 11.5942 38.9876 11.3124C38.8391 11.0178 38.6203 10.7553 38.3469 10.5311C38.0773 10.3102 37.7531 10.1309 37.3937 10.006C37.0499 9.88753 36.671 9.82349 36.2764 9.82349H28.5375C28.1429 9.82349 27.764 9.88753 27.4202 10.006C27.0608 10.1277 26.7405 10.307 26.467 10.5311C26.1974 10.7521 25.9787 11.0178 25.8263 11.3124C25.6818 11.5942 25.6036 11.9047 25.6036 12.2281V14.3766ZM46.3085 22.9226H1.64857V30.6488H2.20721C2.42598 30.1429 2.65256 29.6722 2.90649 29.2528C3.17995 28.8045 3.48857 28.4074 3.8636 28.0648C4.30894 27.655 4.83242 27.338 5.46138 27.1267C6.09034 26.9186 6.82477 26.8129 7.70766 26.8289L38.8391 26.7969C39.8431 26.7969 40.7025 26.8353 41.4526 26.9538C42.2144 27.0722 42.8707 27.274 43.4606 27.5942C44.0075 27.8919 44.4763 28.2858 44.8982 28.8013C45.3006 29.2944 45.66 29.8995 46.0037 30.6456H46.3006V22.9226H46.3085Z" fill-opacity="0.9"/>
</svg>
