<svg  viewBox="0 0 24 27" xmlns="http://www.w3.org/2000/svg">
<path id="Vector" d="M4.96652 0L4.32255 1.33259L2.85714 1.50781L3.97098 2.49219L3.67746 4L4.96652 3.24665L6.2567 4L5.96317 2.49219L7.07701 1.50781L5.61161 1.33259L4.96652 0ZM6.2567 4H3.67746H3.02902C1.356 4 0 5.356 0 7.02902V25.7143C1.51525e-05 25.8658 0.0602239 26.0112 0.167384 26.1183C0.274545 26.2255 0.419881 26.2857 0.571429 26.2857H23.4286C23.5801 26.2857 23.7255 26.2255 23.8326 26.1183C23.9398 26.0112 24 25.8658 24 25.7143V7.02902C24 5.356 22.644 4 20.971 4H20.3225H17.7433H15.6339H13.0547H10.9453H8.36607H6.2567ZM8.36607 4L9.65513 3.24665L10.9453 4L10.6518 2.49219L11.7656 1.50781L10.3002 1.33259L9.65513 0L9.01116 1.33259L7.54576 1.50781L8.6596 2.49219L8.36607 4ZM13.0547 4L14.3449 3.24665L15.6339 4L15.3404 2.49219L16.4542 1.50781L14.9888 1.33259L14.3449 0L13.6998 1.33259L12.2344 1.50781L13.3482 2.49219L13.0547 4ZM17.7433 4L19.0335 3.24665L20.3225 4L20.029 2.49219L21.1429 1.50781L19.6775 1.33259L19.0335 0L18.3884 1.33259L16.923 1.50781L18.0368 2.49219L17.7433 4ZM3.02902 5.14286H20.971C22.0408 5.14286 22.8571 5.95918 22.8571 7.02902V25.1429H14.2857V20.5714C14.2857 20.4199 14.2255 20.2745 14.1183 20.1674C14.0112 20.0602 13.8658 20 13.7143 20H10.2857C10.1342 20 9.98883 20.0602 9.88167 20.1674C9.77451 20.2745 9.7143 20.4199 9.71429 20.5714V25.1429H1.14286V7.02902C1.14286 5.95918 1.95918 5.14286 3.02902 5.14286ZM3.42857 6.28571C3.27702 6.28573 3.13169 6.34594 3.02453 6.4531C2.91737 6.56026 2.85716 6.70559 2.85714 6.85714V9.14286C2.85716 9.2944 2.91737 9.43974 3.02453 9.5469C3.13169 9.65406 3.27702 9.71427 3.42857 9.71428H6.85714C7.00869 9.71427 7.15403 9.65406 7.26119 9.5469C7.36835 9.43974 7.42856 9.2944 7.42857 9.14286V6.85714C7.42856 6.70559 7.36835 6.56026 7.26119 6.4531C7.15403 6.34594 7.00869 6.28573 6.85714 6.28571H3.42857ZM10.2857 6.28571C10.1342 6.28573 9.98883 6.34594 9.88167 6.4531C9.77451 6.56026 9.7143 6.70559 9.71429 6.85714V9.14286C9.7143 9.2944 9.77451 9.43974 9.88167 9.5469C9.98883 9.65406 10.1342 9.71427 10.2857 9.71428H13.7143C13.8658 9.71427 14.0112 9.65406 14.1183 9.5469C14.2255 9.43974 14.2857 9.2944 14.2857 9.14286V6.85714C14.2857 6.70559 14.2255 6.56026 14.1183 6.4531C14.0112 6.34594 13.8658 6.28573 13.7143 6.28571H10.2857ZM17.1429 6.28571C16.9913 6.28573 16.846 6.34594 16.7388 6.4531C16.6317 6.56026 16.5714 6.70559 16.5714 6.85714V9.14286C16.5714 9.2944 16.6317 9.43974 16.7388 9.5469C16.846 9.65406 16.9913 9.71427 17.1429 9.71428H20.5714C20.723 9.71427 20.8683 9.65406 20.9755 9.5469C21.0826 9.43974 21.1428 9.2944 21.1429 9.14286V6.85714C21.1428 6.70559 21.0826 6.56026 20.9755 6.4531C20.8683 6.34594 20.723 6.28573 20.5714 6.28571H17.1429ZM4 7.42857H6.28571V8.57143H4V7.42857ZM10.8571 7.42857H13.1429V8.57143H10.8571V7.42857ZM17.7143 7.42857H20V8.57143H17.7143V7.42857ZM3.42857 10.8571C3.27702 10.8572 3.13169 10.9174 3.02453 11.0245C2.91737 11.1317 2.85716 11.277 2.85714 11.4286V13.7143C2.85716 13.8658 2.91737 14.0112 3.02453 14.1183C3.13169 14.2255 3.27702 14.2857 3.42857 14.2857H6.85714C7.00869 14.2857 7.15403 14.2255 7.26119 14.1183C7.36835 14.0112 7.42856 13.8658 7.42857 13.7143V11.4286C7.42856 11.277 7.36835 11.1317 7.26119 11.0245C7.15403 10.9174 7.00869 10.8572 6.85714 10.8571H3.42857ZM10.2857 10.8571C10.1342 10.8572 9.98883 10.9174 9.88167 11.0245C9.77451 11.1317 9.7143 11.277 9.71429 11.4286V13.7143C9.7143 13.8658 9.77451 14.0112 9.88167 14.1183C9.98883 14.2255 10.1342 14.2857 10.2857 14.2857H13.7143C13.8658 14.2857 14.0112 14.2255 14.1183 14.1183C14.2255 14.0112 14.2857 13.8658 14.2857 13.7143V11.4286C14.2857 11.277 14.2255 11.1317 14.1183 11.0245C14.0112 10.9174 13.8658 10.8572 13.7143 10.8571H10.2857ZM17.1429 10.8571C16.9913 10.8572 16.846 10.9174 16.7388 11.0245C16.6317 11.1317 16.5714 11.277 16.5714 11.4286V13.7143C16.5714 13.8658 16.6317 14.0112 16.7388 14.1183C16.846 14.2255 16.9913 14.2857 17.1429 14.2857H20.5714C20.723 14.2857 20.8683 14.2255 20.9755 14.1183C21.0826 14.0112 21.1428 13.8658 21.1429 13.7143V11.4286C21.1428 11.277 21.0826 11.1317 20.9755 11.0245C20.8683 10.9174 20.723 10.8572 20.5714 10.8571H17.1429ZM4 12H6.28571V13.1429H4V12ZM10.8571 12H13.1429V13.1429H10.8571V12ZM17.7143 12H20V13.1429H17.7143V12ZM3.42857 15.4286C3.27702 15.4286 3.13169 15.4888 3.02453 15.596C2.91737 15.7031 2.85716 15.8484 2.85714 16V18.2857C2.85716 18.4373 2.91737 18.5826 3.02453 18.6898C3.13169 18.7969 3.27702 18.8571 3.42857 18.8571H6.85714C7.00869 18.8571 7.15403 18.7969 7.26119 18.6898C7.36835 18.5826 7.42856 18.4373 7.42857 18.2857V16C7.42856 15.8484 7.36835 15.7031 7.26119 15.596C7.15403 15.4888 7.00869 15.4286 6.85714 15.4286H3.42857ZM10.2857 15.4286C10.1342 15.4286 9.98883 15.4888 9.88167 15.596C9.77451 15.7031 9.7143 15.8484 9.71429 16V18.2857C9.7143 18.4373 9.77451 18.5826 9.88167 18.6898C9.98883 18.7969 10.1342 18.8571 10.2857 18.8571H13.7143C13.8658 18.8571 14.0112 18.7969 14.1183 18.6898C14.2255 18.5826 14.2857 18.4373 14.2857 18.2857V16C14.2857 15.8484 14.2255 15.7031 14.1183 15.596C14.0112 15.4888 13.8658 15.4286 13.7143 15.4286H10.2857ZM17.1429 15.4286C16.9913 15.4286 16.846 15.4888 16.7388 15.596C16.6317 15.7031 16.5714 15.8484 16.5714 16V18.2857C16.5714 18.4373 16.6317 18.5826 16.7388 18.6898C16.846 18.7969 16.9913 18.8571 17.1429 18.8571H20.5714C20.723 18.8571 20.8683 18.7969 20.9755 18.6898C21.0826 18.5826 21.1428 18.4373 21.1429 18.2857V16C21.1428 15.8484 21.0826 15.7031 20.9755 15.596C20.8683 15.4888 20.723 15.4286 20.5714 15.4286H17.1429ZM4 16.5714H6.28571V17.7143H4V16.5714ZM10.8571 16.5714H13.1429V17.7143H10.8571V16.5714ZM17.7143 16.5714H20V17.7143H17.7143V16.5714ZM3.42857 20C3.27702 20 3.13169 20.0602 3.02453 20.1674C2.91737 20.2745 2.85716 20.4199 2.85714 20.5714V22.8571C2.85716 23.0087 2.91737 23.154 3.02453 23.2612C3.13169 23.3683 3.27702 23.4286 3.42857 23.4286H6.85714C7.00869 23.4286 7.15403 23.3683 7.26119 23.2612C7.36835 23.154 7.42856 23.0087 7.42857 22.8571V20.5714C7.42856 20.4199 7.36835 20.2745 7.26119 20.1674C7.15403 20.0602 7.00869 20 6.85714 20H3.42857ZM17.1429 20C16.9913 20 16.846 20.0602 16.7388 20.1674C16.6317 20.2745 16.5714 20.4199 16.5714 20.5714V22.8571C16.5714 23.0087 16.6317 23.154 16.7388 23.2612C16.846 23.3683 16.9913 23.4286 17.1429 23.4286H20.5714C20.723 23.4286 20.8683 23.3683 20.9755 23.2612C21.0826 23.154 21.1428 23.0087 21.1429 22.8571V20.5714C21.1428 20.4199 21.0826 20.2745 20.9755 20.1674C20.8683 20.0602 20.723 20 20.5714 20H17.1429ZM4 21.1429H6.28571V22.2857H4V21.1429ZM10.8571 21.1429H13.1429V25.1429H10.8571V21.1429ZM17.7143 21.1429H20V22.2857H17.7143V21.1429Z"/>
</svg>
