<svg width="32" height="32" viewBox="0 0 32 32" fill="none" xmlns="http://www.w3.org/2000/svg">
<g id="location-pin-svgrepo-com 1" clip-path="url(#clip0_1_461)">
<path id="Vector" d="M16.114 -0.0110016C9.555 -0.0110016 4 5.576 4 12.193C4 19.123 10.439 26.21 14.77 31.191C14.787 31.211 15.487 31.988 16.349 31.988H16.425C17.288 31.988 17.983 31.211 18 31.191C22.064 26.519 28 18.814 28 12.193C28 5.575 23.667 -0.0110016 16.114 -0.0110016ZM16.515 29.849C16.48 29.884 16.429 29.923 16.384 29.956C16.338 29.924 16.288 29.884 16.251 29.849L15.728 29.247C11.622 24.537 5.999 18.086 5.999 12.192C5.999 6.66 10.631 1.987 16.113 1.987C22.942 1.987 25.999 7.112 25.999 12.192C25.999 16.666 22.808 22.608 16.515 29.849ZM16.035 6.044C12.722 6.044 10.035 8.73 10.035 12.044C10.035 15.358 12.722 18.044 16.035 18.044C19.348 18.044 22.035 15.357 22.035 12.044C22.035 8.731 19.349 6.044 16.035 6.044ZM16.035 16.044C13.829 16.044 11.989 14.206 11.989 12C11.989 9.794 13.783 8 15.989 8C18.196 8 19.989 9.794 19.989 12C19.99 14.206 18.242 16.044 16.035 16.044Z" fill="#3077FF"/>
</g>
<defs>
<clipPath id="clip0_1_461">
<rect width="32" height="32" fill="white"/>
</clipPath>
</defs>
</svg>
