<svg width="32" height="32" viewBox="0 0 32 32" fill="none" xmlns="http://www.w3.org/2000/svg">
<g id="price-ui-svgrepo-com 1">
<path id="Vector" d="M28 16.9227L15.0773 4H4V15.0773L16.9227 28L28 16.9227ZM13.2307 13.2307C12.8656 13.5958 12.4004 13.8444 11.894 13.9452C11.3875 14.0459 10.8626 13.9942 10.3856 13.7966C9.90854 13.599 9.50081 13.2644 9.21394 12.8351C8.92707 12.4058 8.77396 11.901 8.77396 11.3847C8.77396 10.8683 8.92707 10.3636 9.21394 9.93425C9.50081 9.50493 9.90854 9.17031 10.3856 8.97272C10.8626 8.77513 11.3875 8.72343 11.894 8.82417C12.4004 8.92491 12.8656 9.17355 13.2307 9.53867C13.4732 9.781 13.6657 10.0688 13.797 10.3855C13.9283 10.7023 13.9958 11.0418 13.9958 11.3847C13.9958 11.7275 13.9283 12.0671 13.797 12.3838C13.6657 12.7006 13.4732 12.9883 13.2307 13.2307Z" />
</g>
</svg>
