<svg xmlns="http://www.w3.org/2000/svg" width="22" height="22" viewBox="0 0 22 22" fill="none">
  <g clip-path="url(#clip0_1_421)">
    <path fill-rule="evenodd" clip-rule="evenodd" d="M15.4915 6.59998C15.4915 4.17338 13.477 2.19998 11 2.19998C8.52299 2.19998 6.50857 4.17338 6.50857 6.59998C6.50857 9.02659 8.52299 11 11 11C13.477 11 15.4915 9.02659 15.4915 6.59998ZM19.7404 22H17.7372C17.1174 22 16.6143 21.5072 16.6143 20.9C16.6143 20.2928 17.1174 19.8 17.7372 19.8H18.2189C18.9959 19.8 19.5697 19.0333 19.2755 18.3282C17.9157 15.0678 14.7223 13.2 11 13.2C7.27774 13.2 4.08432 15.0678 2.72454 18.3282C2.43035 19.0333 3.00415 19.8 3.78116 19.8H4.26285C4.88267 19.8 5.38571 20.2928 5.38571 20.9C5.38571 21.5072 4.88267 22 4.26285 22H2.25967C0.856094 22 -0.2488 20.7427 0.0487575 19.3996C0.866198 15.7047 3.41848 12.9778 6.78032 11.7403C5.24649 10.5314 4.26285 8.67899 4.26285 6.59998C4.26285 2.69388 7.72577 -0.419125 11.8074 0.0461745C14.765 0.382775 17.215 2.69162 17.6586 5.57692C18.0403 8.06404 17.0017 10.3356 15.2197 11.7403C18.5816 12.9778 21.1338 15.7047 21.9513 19.3996C22.2488 20.7427 21.1439 22 19.7404 22ZM14.3686 20.9C14.3686 21.5072 13.8656 22 13.2457 22H8.75429C8.13448 22 7.63143 21.5072 7.63143 20.9C7.63143 20.2928 8.13448 19.8 8.75429 19.8H13.2457C13.8656 19.8 14.3686 20.2928 14.3686 20.9Z" />
  </g>
  <defs>
    <clipPath id="clip0_1_421">
      <rect width="22" height="22" fill="white"/>
    </clipPath>
  </defs>
</svg>